<svg width="63" height="63" viewBox="0 0 63 63" fill="none" xmlns="http://www.w3.org/2000/svg">
<path fill-rule="evenodd" clip-rule="evenodd" d="M60.1643 62.5556H2.90132C1.60202 62.5556 0.548828 61.5023 0.548828 60.203V2.93594C0.548828 1.63655 1.60202 0.583885 2.90132 0.583885H60.1643C61.4636 0.583885 62.5168 1.63655 62.5168 2.93594V60.203C62.5168 61.5023 61.4636 62.5556 60.1643 62.5556Z" fill="#FF6700"/>
<path d="M49.1395 20.0752H44.2643C44.0556 20.0752 43.8865 20.2413 43.8865 20.4458V42.6907C43.8865 42.8935 44.0556 43.0596 44.2643 43.0596H49.1395C49.3464 43.0596 49.5178 42.8935 49.5178 42.6906V20.4458C49.5178 20.2413 49.3464 20.0752 49.1395 20.0752ZM32.4936 20.0752H13.9234C13.7147 20.0752 13.5469 20.2413 13.5469 20.4458V42.6907C13.5469 42.8935 13.7147 43.0596 13.9234 43.0596H18.7998C19.0073 43.0596 19.1793 42.8935 19.1793 42.6906V25.2318C19.1793 25.0302 19.3471 24.8629 19.5559 24.8629H30.0599C33.0137 24.8629 33.8522 27.1254 33.8522 28.5849V42.6907C33.8522 42.8935 34.0218 43.0596 34.2305 43.0596H39.1039C39.3115 43.0596 39.4817 42.8935 39.4817 42.6906V26.9101C39.4817 25.6084 39.3251 23.7367 37.6457 22.0892C35.8886 20.3693 34.2857 20.0752 32.4936 20.0752" fill="white"/>
<path d="M29.0777 28.9355H23.9582C23.7494 28.9355 23.5781 29.1015 23.5781 29.3049V42.6925C23.5781 42.8947 23.7494 43.0608 23.9582 43.0608H29.0777C29.2846 43.0608 29.4542 42.8947 29.4542 42.6925V29.3049C29.4542 29.1015 29.2846 28.9355 29.0777 28.9355Z" fill="white"/>
</svg>
