<svg width="221" height="56" viewBox="0 0 221 56" fill="none" xmlns="http://www.w3.org/2000/svg">
<g clip-path="url(#clip0_321_1035)">
<path d="M200.547 31.7148H188.51C187.753 31.7148 187.115 31.1091 187.115 30.4543C187.115 29.7942 187.753 29.1613 188.51 29.1613H203.055L203.047 29.1686H203.062C203.062 30.5684 201.937 31.7061 200.547 31.7148ZM206.637 26.1064C206.637 22.818 204.074 20.6029 200.809 20.6029H187.687C186.77 20.6029 186.013 21.4434 186.013 22.3025C186.013 23.1636 186.77 23.9723 187.687 23.9723L201.066 23.9769C202.103 23.9769 202.943 24.8254 202.943 25.8696H202.939L202.943 25.8742H188.812C185.639 25.8742 183.648 27.615 183.648 30.4543C183.648 32.9321 185.7 35.0788 188.812 35.0788H199.474C204.259 35.0788 206.638 32.9321 206.638 29.2622C206.638 29.0924 206.667 26.5038 206.638 26.1064M36.6068 26.3884H18.191V24.1481C18.191 22.9115 19.1894 21.9058 20.4134 21.9058H36.6068C37.8368 21.9058 38.8345 22.9115 38.8345 24.1481C38.8345 25.3846 37.8368 26.3884 36.6075 26.3884M40.6807 28.3215C41.2789 27.7913 41.7576 27.1401 42.0851 26.4111C42.4127 25.682 42.5816 24.8916 42.5807 24.0923C42.5807 20.983 40.0764 18.4634 36.9929 18.4634H19.9941C16.9086 18.4634 14.4023 20.9837 14.4023 24.0923V33.3938C14.4023 34.3703 15.357 35.183 16.3315 35.183C17.3067 35.183 18.2189 34.371 18.2189 33.3938V29.8174H35.7C37.7558 29.8174 38.6156 30.041 38.6461 32.2289V33.5988C38.6488 34.5554 39.5722 35.3422 40.5202 35.3422C41.4675 35.3422 42.3545 34.5554 42.3545 33.5988V31.6942C42.3545 30.1173 41.7846 29.024 40.6814 28.3215M181.468 20.6009H162.281C161.297 20.6009 160.483 21.462 160.483 22.3854C160.483 23.3109 161.297 24.2111 162.281 24.2111L168.785 24.2131C169.409 24.2131 169.915 24.7226 169.915 25.3495V33.3407C169.915 34.3391 170.896 35.1452 171.891 35.1452C172.881 35.1452 173.867 34.3391 173.867 33.3407H173.869V25.3468C173.869 24.7186 174.373 24.2111 174.993 24.2111H181.468C182.454 24.2111 183.266 23.3115 183.266 22.3868C183.266 21.4626 182.454 20.6022 181.468 20.6022M152.627 20.5963H143.679C139.76 20.6599 136.598 23.8708 136.598 27.8286V33.3348C136.598 34.3325 137.569 35.1591 138.561 35.1591C139.554 35.1591 140.481 34.3325 140.485 33.3348V27.8286C140.485 25.8311 142.091 24.2091 144.079 24.2091H152.225C154.215 24.2091 155.822 25.8311 155.822 27.8286V33.3348C155.822 34.3325 156.728 35.1445 157.72 35.1445C158.715 35.1445 159.701 34.3325 159.701 33.3348V27.8286C159.701 23.8708 156.547 20.6599 152.627 20.5963ZM105.572 20.4981C104.578 20.4981 103.649 21.3227 103.649 22.3237V27.8286C103.649 29.8301 102.039 31.4501 100.054 31.4501L94.37 31.4547C94.2004 31.454 94.0327 31.4199 93.8763 31.3544C93.72 31.2889 93.578 31.1932 93.4587 31.0728C93.3393 30.9525 93.2448 30.8098 93.1805 30.6529C93.1163 30.496 93.0836 30.328 93.0843 30.1584V22.2886C93.0823 21.2842 92.1078 20.451 91.1074 20.451C90.1043 20.451 89.1696 21.2842 89.1696 22.2886L89.1623 30.1584C89.163 30.3276 89.1303 30.4953 89.0661 30.6519C89.0019 30.8084 88.9074 30.9507 88.7881 31.0707C88.6688 31.1907 88.527 31.286 88.3709 31.3511C88.2147 31.4162 88.0472 31.4498 87.878 31.4501H82.2007C80.2125 31.4501 78.605 29.8301 78.605 27.8286V22.3237C78.605 21.322 77.6372 20.4981 76.6467 20.4981C75.6536 20.4981 74.7248 21.3227 74.7248 22.3237V26.5927H74.7302V27.8379C74.7302 31.7983 77.874 34.982 81.792 35.0443H88.4067C90.2841 35.0443 91.122 34.093 91.124 34.093C91.124 34.093 92.2153 35.0629 93.7205 35.0629C95.2291 35.0629 100.455 35.0437 100.455 35.0437C104.374 34.982 107.53 31.7983 107.53 27.8379V26.592H107.532V22.3231C107.53 21.3227 106.564 20.4987 105.572 20.4987M64.1265 31.4494H53.1041C51.1969 31.4494 49.6505 29.7531 49.6505 27.8306C49.6505 25.9134 51.1969 24.2184 53.1041 24.2184H64.1265C66.0337 24.2184 67.5801 25.9134 67.5801 27.8306C67.5801 29.7531 66.0337 31.4494 64.1265 31.4494ZM64.4091 20.5963H52.8255C48.8531 20.5963 45.635 23.8349 45.635 27.8306C45.635 31.8295 48.8531 35.0715 52.8255 35.0715H64.4091C68.3795 35.0715 71.5969 31.8295 71.5969 27.8306C71.5969 23.8349 68.3795 20.5963 64.4091 20.5963ZM117.752 23.9636L117.757 23.961H128.76C129.52 23.961 130.156 24.5567 130.156 25.2201C130.156 25.8815 129.519 26.5104 128.76 26.5104H114.15C114.683 25.0251 116.096 23.9636 117.752 23.9636ZM122.154 29.8015H128.457C131.63 29.8015 133.62 28.0575 133.62 25.2201C133.62 22.7403 131.572 20.5963 128.457 20.5963H117.792C113.825 20.5963 110.605 23.8349 110.605 27.8306C110.605 31.8289 113.825 35.0722 117.792 35.0722H129.822C130.74 35.0676 131.498 34.2317 131.498 33.3679C131.498 32.5082 130.739 31.6988 129.822 31.6988H117.757L117.745 31.6915C117.081 31.6894 116.43 31.5147 115.854 31.1846C115.278 30.8545 114.799 30.3804 114.462 29.8088H122.154V29.8015Z" fill="#6D6F71"/>
<path d="M16.5779 54.0909C7.43164 54.0909 0.0195312 46.6767 0.0195312 37.5365V18.4082C0.0195312 9.26791 7.43098 1.85248 16.5779 1.85248H204.443C213.587 1.85248 221 9.26791 221 18.4082V37.5365C221 46.6767 213.587 54.0909 204.443 54.0909H16.5779Z" stroke="#6D6F71" stroke-width="1.01499"/>
</g>
<defs>
<clipPath id="clip0_321_1035">
<rect width="220.98" height="55.4218" fill="white" transform="translate(0.0195312 0.260681)"/>
</clipPath>
</defs>
</svg>
