<svg width="139" height="53" viewBox="0 0 139 53" fill="none" xmlns="http://www.w3.org/2000/svg">
<path d="M40.3886 52.9571C37.3275 52.6176 34.4172 51.4454 31.9974 49.5942C31.5824 49.2924 31.3561 49.1792 31.3561 49.066C31.3938 48.8774 34.6059 44.5309 34.719 44.4932C34.7945 44.4555 34.9454 44.5686 35.2095 44.7195C36.3816 45.474 38.1574 46.269 39.4805 46.6085C40.7658 46.9103 42.5416 46.8726 43.8647 46.533C45.7159 46.0049 47.3785 44.5686 48.2112 42.7147C48.7393 41.5425 49.157 39.8422 49.2702 38.3305C49.3079 37.6892 49.3079 37.576 49.1947 37.576C49.1193 37.576 49.0438 37.6515 48.9684 37.6892C48.5534 38.1796 47.2303 38.9368 46.0204 39.3141C44.7351 39.729 43.7919 39.8799 42.6198 39.8045C40.429 39.6913 38.8796 39.2763 37.0257 38.3305C33.2855 36.4038 30.8279 33.0005 30.1839 28.8076C30.1085 28.3172 30.0707 26.5791 30.0707 21.1736V14.1837L33.4714 14.1459L36.8721 14.1082C36.8721 14.1082 36.9852 17.4334 37.023 21.1009C37.0984 27.2231 37.0984 27.789 37.2493 28.3576C37.8152 30.7019 39.6691 32.4777 42.0485 32.9681C42.8811 33.119 44.1638 33.0813 44.921 32.855C46.8854 32.2514 48.3971 30.7774 49.0411 28.8103L49.3052 28.0935L49.3429 21.1386L49.3807 14.1837L52.819 14.1459C55.5029 14.1459 56.2574 14.1082 56.2951 14.1837C56.3706 14.3346 56.4083 30.4729 56.2951 33.4963C56.2197 36.1802 56.0688 38.1068 55.8424 39.7317C55.1634 44.3423 53.8403 47.328 51.496 49.5969C49.7956 51.2217 47.6022 52.243 44.6542 52.7712C43.9024 52.9194 41.1054 53.0326 40.3886 52.9571ZM68.8442 39.9204C68.7687 39.8826 68.2783 39.8072 67.8229 39.694C65.5944 39.2036 63.4764 38.4464 61.6629 37.541C60.6794 37.0505 59.2054 36.1047 59.1677 35.9538C59.1299 35.8784 62.2288 31.796 62.4929 31.4942C62.606 31.381 62.5306 31.4942 63.2096 31.8714C64.495 32.6259 66.4594 33.3454 68.0843 33.6849C69.2187 33.9113 71.5981 33.949 72.4685 33.7226C73.6784 33.3831 74.3574 32.8145 74.3574 32.0978C74.3574 31.2274 73.6407 30.8501 69.7092 29.7157C68.1597 29.263 66.4217 28.7321 65.8531 28.5058C62.377 27.2204 60.5635 25.5955 59.9195 23.3293C59.7686 22.8389 59.7686 22.5344 59.7686 21.7045C59.7686 19.6646 60.3722 18.2284 61.8461 16.7167C63.3956 15.1295 65.3977 14.1837 68.0816 13.8441C70.9164 13.4669 74.8829 14.1082 77.6799 15.4313C78.359 15.7331 79.4557 16.3771 79.7953 16.6789L80.0216 16.8676L78.359 19.0206C77.4509 20.1928 76.6587 21.1736 76.6209 21.1736C76.5832 21.1736 76.0928 21.0227 75.5997 20.8341C73.673 20.155 72.1236 19.8128 70.4232 19.7374C68.2702 19.6619 66.9848 20.0392 66.5672 20.9095C66.2277 21.6263 66.5672 22.1572 67.7771 22.6853C68.1543 22.8362 69.7038 23.3266 71.2155 23.782C75.2979 24.9542 76.7341 25.5201 78.2081 26.5036C81.0429 28.3926 81.8728 31.3028 80.5902 34.628C80.1752 35.7248 79.7952 36.2906 79.0407 37.0101C77.5668 38.4086 75.9419 39.2386 73.7107 39.7317C72.9158 39.9203 72.614 39.9581 70.9514 40.0335C69.9032 40.0335 69.6014 40.0713 68.8442 39.9204ZM11.968 39.8072C8.1497 39.4299 4.71132 37.3496 2.52056 34.1376C0.895685 31.7178 0.138487 28.8857 0.329807 25.8623C0.669334 20.3437 4.67629 15.5445 10.0414 14.1837C11.5531 13.8064 11.9303 13.7687 15.8241 13.731L19.5265 13.6932L19.5643 7.34463L19.602 0.996017L23.0027 0.958292C25.6865 0.958292 26.441 0.882841 26.4788 0.996017C26.4788 1.03374 26.5165 4.05715 26.5542 7.60871C26.6297 15.3559 26.5165 27.7513 26.2901 28.848C25.9506 30.6615 25.382 32.1732 24.4766 33.6849C23.4931 35.2721 21.9059 36.8592 20.2056 37.9182C19.222 38.5218 17.7481 39.1281 16.5031 39.4676C15.331 39.8072 13.2157 39.9203 11.968 39.8072ZM14.5765 32.8523C16.654 32.4373 18.4702 30.8124 19.1493 28.8453C19.4888 27.8618 19.5265 27.4091 19.4888 23.9329L19.4511 20.6832H15.9373C12.0058 20.6832 11.8926 20.6832 10.7986 21.2113C9.09822 22.0063 7.88832 23.4021 7.36017 25.2183C7.20927 25.7087 7.17154 26.0132 7.17154 26.8054C7.17154 27.9776 7.28472 28.5435 7.8506 29.6402C8.19012 30.357 8.34102 30.5106 9.02277 31.2274C9.8177 32.0223 10.4967 32.4373 11.4049 32.7391C12.3453 33.0032 13.5929 33.0786 14.5765 32.8523ZM94.8476 39.8072C93.2605 39.6563 91.711 39.2036 90.1239 38.4086C87.6663 37.161 85.7019 35.2343 84.492 32.8145C83.7753 31.4537 83.3576 30.1684 83.1312 28.6567C82.9803 27.824 82.9803 25.5578 83.1312 24.8383C83.6594 21.8149 84.907 19.4329 86.9496 17.4685C89.0272 15.4663 91.3715 14.3319 94.244 13.9169C98.2887 13.3133 102.406 14.6714 105.316 17.5816C107.168 19.4329 108.302 21.5509 108.906 24.1943C109.132 25.2533 109.207 27.4441 109.019 28.6163C108.453 32.51 106.335 35.7598 102.972 37.9128C101.649 38.7455 99.7977 39.4245 98.1351 39.6886C97.4156 39.8449 95.6776 39.8826 94.8476 39.8072ZM97.7956 32.7768C98.9677 32.3996 99.7977 31.8687 100.593 31.0388C103.012 28.4681 102.746 24.3129 100.027 22.1194C99.4231 21.629 98.2132 21.0227 97.456 20.8718C96.6611 20.6832 95.303 20.6832 94.5081 20.9095C92.8455 21.3245 91.4092 22.4967 90.6143 24.0084C90.0862 24.9919 89.9353 25.5578 89.9353 26.8432C89.9353 27.7513 89.973 28.0531 90.1239 28.5435C90.5388 30.0175 91.447 31.2274 92.6946 32.0573C93.3359 32.4723 93.9799 32.7364 95.0389 33.0032C95.1144 33.0409 95.6425 33.0409 96.2111 33.0032C97.0384 32.9277 97.3779 32.89 97.7956 32.7768ZM111.967 39.3895C111.967 39.1254 111.891 26.73 111.967 25.7842C112.382 21.1736 114.952 17.3176 119.11 15.2023C122.737 13.351 127.197 13.3133 130.789 15.1268C134.303 16.8649 136.76 19.8505 137.782 23.4802C138.197 24.9919 138.197 24.9542 138.234 32.2864C138.234 36.2933 138.31 39.2036 138.234 39.2036C133.397 39.2036 133.322 39.2036 131.204 39.2036C131.166 39.2036 131.166 36.6706 131.166 32.6663C131.166 25.5982 131.166 25.6737 130.751 24.5419C130.11 22.8416 128.407 21.3299 126.593 20.8772C125.723 20.6509 124.403 20.6509 123.495 20.8772C121.266 21.4431 119.676 23.0302 118.997 25.3369C118.884 25.7141 118.884 26.509 118.846 32.5181L118.809 39.3976C118.809 39.3976 116.957 39.4353 115.219 39.4353C112.231 39.3895 113.743 39.3895 111.967 39.3895Z" fill="black"/>
</svg>
