<svg width="29" height="32" viewBox="0 0 29 32" fill="none" xmlns="http://www.w3.org/2000/svg">
<path d="M21.3369 31.3403C20.9232 31.7062 20.2912 31.6674 19.9253 31.2537L13.9628 24.5122C13.5969 24.0985 13.6357 23.4665 14.0494 23.1006C14.4631 22.7347 15.095 22.7735 15.4609 23.1872L20.7609 29.1797L26.7534 23.8797C27.1671 23.5138 27.7991 23.5526 28.165 23.9663C28.5309 24.38 28.4921 25.0119 28.0784 25.3778L21.3369 31.3403ZM1.59271 0.965339C1.81529 1.12914 2.27733 1.34397 3.06955 1.66338C3.80846 1.9613 4.78003 2.33081 5.83676 2.78285C7.96968 3.69525 10.5787 4.99526 13.0622 7.03343C18.0844 11.1552 22.4379 18.1712 21.6725 30.6525L19.6762 30.53C20.4044 18.6568 16.2947 12.2737 11.7934 8.57943C9.51501 6.70958 7.09719 5.49733 5.05017 4.62167C4.01693 4.17969 3.11027 3.83624 2.32169 3.51829C1.58642 3.22185 0.871709 2.91794 0.407286 2.57616L1.59271 0.965339Z" fill="#F05A22"/>
</svg>
